<svg display="none" xmlns="http://www.w3.org/2000/svg">
    <symbol viewBox="0 0 102 20" fill="none" id="logo-icon" >
    <path d="M20.348 1.516V19H16.772V8.944C16.772 8.712 16.776 8.46 16.784 8.188C16.8 7.916 16.824 7.64 16.856 7.36L12.212 16.348C12.068 16.628 11.872 16.84 11.624 16.984C11.384 17.128 11.108 17.2 10.796 17.2H10.244C9.93202 17.2 9.65202 17.128 9.40402 16.984C9.16402 16.84 8.97202 16.628 8.82802 16.348L4.18402 7.336C4.20802 7.624 4.22802 7.908 4.24402 8.188C4.26002 8.46 4.26802 8.712 4.26802 8.944V19H0.692017V1.516H3.78802C3.96402 1.516 4.11602 1.52 4.24402 1.528C4.38002 1.536 4.50002 1.56 4.60402 1.6C4.70802 1.64 4.80002 1.704 4.88002 1.792C4.96802 1.872 5.05202 1.988 5.13202 2.14L9.63202 11.008C9.79202 11.312 9.94402 11.628 10.088 11.956C10.24 12.284 10.384 12.62 10.52 12.964C10.656 12.612 10.796 12.268 10.94 11.932C11.092 11.596 11.252 11.276 11.42 10.972L15.908 2.14C15.988 1.988 16.068 1.872 16.148 1.792C16.236 1.704 16.332 1.64 16.436 1.6C16.54 1.56 16.656 1.536 16.784 1.528C16.92 1.52 17.076 1.516 17.252 1.516H20.348ZM26.939 6.556V19H23.219V6.556H26.939ZM27.323 3.148C27.323 3.444 27.263 3.724 27.143 3.988C27.023 4.244 26.859 4.472 26.651 4.672C26.443 4.864 26.199 5.02 25.919 5.14C25.647 5.252 25.355 5.308 25.043 5.308C24.739 5.308 24.455 5.252 24.191 5.14C23.927 5.02 23.691 4.864 23.483 4.672C23.283 4.472 23.123 4.244 23.003 3.988C22.891 3.724 22.835 3.444 22.835 3.148C22.835 2.844 22.891 2.56 23.003 2.296C23.123 2.032 23.283 1.8 23.483 1.6C23.691 1.4 23.927 1.244 24.191 1.132C24.455 1.02 24.739 0.964001 25.043 0.964001C25.355 0.964001 25.647 1.02 25.919 1.132C26.199 1.244 26.443 1.4 26.651 1.6C26.859 1.8 27.023 2.032 27.143 2.296C27.263 2.56 27.323 2.844 27.323 3.148ZM37.0814 9.892C36.8014 9.58 36.4974 9.364 36.1694 9.244C35.8414 9.116 35.4974 9.052 35.1374 9.052C34.7934 9.052 34.4774 9.12 34.1894 9.256C33.9014 9.392 33.6494 9.612 33.4334 9.916C33.2254 10.212 33.0614 10.6 32.9414 11.08C32.8214 11.56 32.7614 12.14 32.7614 12.82C32.7614 13.476 32.8094 14.028 32.9054 14.476C33.0014 14.924 33.1334 15.288 33.3014 15.568C33.4774 15.84 33.6854 16.036 33.9254 16.156C34.1654 16.276 34.4334 16.336 34.7294 16.336C35.0014 16.336 35.2454 16.312 35.4614 16.264C35.6854 16.208 35.8894 16.132 36.0734 16.036C36.2574 15.94 36.4294 15.82 36.5894 15.676C36.7574 15.524 36.9214 15.352 37.0814 15.16V9.892ZM40.8014 1.036V19H38.4974C38.0334 19 37.7294 18.792 37.5854 18.376L37.2974 17.428C37.0494 17.692 36.7894 17.932 36.5174 18.148C36.2454 18.364 35.9494 18.552 35.6294 18.712C35.3174 18.864 34.9774 18.98 34.6094 19.06C34.2494 19.148 33.8574 19.192 33.4334 19.192C32.7854 19.192 32.1854 19.048 31.6334 18.76C31.0814 18.472 30.6054 18.056 30.2054 17.512C29.8054 16.968 29.4894 16.304 29.2574 15.52C29.0334 14.728 28.9214 13.828 28.9214 12.82C28.9214 11.892 29.0494 11.032 29.3054 10.24C29.5614 9.44 29.9214 8.752 30.3854 8.176C30.8574 7.592 31.4214 7.136 32.0774 6.808C32.7334 6.48 33.4574 6.316 34.2494 6.316C34.8974 6.316 35.4414 6.408 35.8814 6.592C36.3214 6.776 36.7214 7.024 37.0814 7.336V1.036H40.8014ZM51.0547 11.284C51.0547 10.988 51.0147 10.7 50.9347 10.42C50.8627 10.14 50.7387 9.892 50.5627 9.676C50.3947 9.452 50.1707 9.272 49.8907 9.136C49.6107 9 49.2707 8.932 48.8707 8.932C48.1667 8.932 47.6147 9.136 47.2147 9.544C46.8147 9.944 46.5507 10.524 46.4227 11.284H51.0547ZM46.3747 13.444C46.4947 14.484 46.8107 15.24 47.3227 15.712C47.8347 16.176 48.4947 16.408 49.3027 16.408C49.7347 16.408 50.1067 16.356 50.4187 16.252C50.7307 16.148 51.0067 16.032 51.2467 15.904C51.4947 15.776 51.7187 15.66 51.9187 15.556C52.1267 15.452 52.3427 15.4 52.5667 15.4C52.8627 15.4 53.0867 15.508 53.2387 15.724L54.3187 17.056C53.9347 17.496 53.5187 17.856 53.0707 18.136C52.6307 18.408 52.1747 18.624 51.7027 18.784C51.2387 18.936 50.7707 19.04 50.2987 19.096C49.8347 19.16 49.3907 19.192 48.9667 19.192C48.0947 19.192 47.2747 19.052 46.5067 18.772C45.7467 18.484 45.0787 18.06 44.5027 17.5C43.9347 16.94 43.4827 16.244 43.1467 15.412C42.8187 14.58 42.6547 13.612 42.6547 12.508C42.6547 11.676 42.7947 10.888 43.0747 10.144C43.3627 9.4 43.7707 8.748 44.2987 8.188C44.8347 7.628 45.4787 7.184 46.2307 6.856C46.9907 6.528 47.8467 6.364 48.7987 6.364C49.6227 6.364 50.3747 6.492 51.0547 6.748C51.7427 7.004 52.3307 7.376 52.8187 7.864C53.3147 8.352 53.6987 8.952 53.9707 9.664C54.2507 10.368 54.3907 11.168 54.3907 12.064C54.3907 12.344 54.3787 12.572 54.3547 12.748C54.3307 12.924 54.2867 13.064 54.2227 13.168C54.1587 13.272 54.0707 13.344 53.9587 13.384C53.8547 13.424 53.7187 13.444 53.5507 13.444H46.3747ZM59.7322 8.476C60.1162 7.804 60.5562 7.276 61.0522 6.892C61.5562 6.508 62.1322 6.316 62.7802 6.316C63.3402 6.316 63.7962 6.448 64.1482 6.712L63.9082 9.448C63.8682 9.624 63.8002 9.744 63.7042 9.808C63.6162 9.872 63.4922 9.904 63.3322 9.904C63.2682 9.904 63.1842 9.9 63.0802 9.892C62.9762 9.884 62.8682 9.876 62.7562 9.868C62.6442 9.852 62.5282 9.84 62.4082 9.832C62.2962 9.816 62.1922 9.808 62.0962 9.808C61.5522 9.808 61.1162 9.952 60.7882 10.24C60.4682 10.528 60.1962 10.928 59.9722 11.44V19H56.2522V6.556H58.4602C58.6442 6.556 58.7962 6.572 58.9162 6.604C59.0442 6.636 59.1482 6.688 59.2282 6.76C59.3162 6.824 59.3802 6.912 59.4202 7.024C59.4682 7.136 59.5082 7.272 59.5402 7.432L59.7322 8.476ZM70.9413 6.364C71.8853 6.364 72.7453 6.512 73.5213 6.808C74.2973 7.104 74.9613 7.528 75.5133 8.08C76.0733 8.632 76.5053 9.304 76.8093 10.096C77.1213 10.88 77.2773 11.764 77.2773 12.748C77.2773 13.74 77.1213 14.636 76.8093 15.436C76.5053 16.228 76.0733 16.904 75.5133 17.464C74.9613 18.016 74.2973 18.444 73.5213 18.748C72.7453 19.044 71.8853 19.192 70.9413 19.192C69.9893 19.192 69.1213 19.044 68.3373 18.748C67.5613 18.444 66.8893 18.016 66.3213 17.464C65.7613 16.904 65.3253 16.228 65.0133 15.436C64.7093 14.636 64.5573 13.74 64.5573 12.748C64.5573 11.764 64.7093 10.88 65.0133 10.096C65.3253 9.304 65.7613 8.632 66.3213 8.08C66.8893 7.528 67.5613 7.104 68.3373 6.808C69.1213 6.512 69.9893 6.364 70.9413 6.364ZM70.9413 16.432C71.7973 16.432 72.4253 16.132 72.8253 15.532C73.2333 14.924 73.4373 14.004 73.4373 12.772C73.4373 11.54 73.2333 10.624 72.8253 10.024C72.4253 9.424 71.7973 9.124 70.9413 9.124C70.0613 9.124 69.4173 9.424 69.0093 10.024C68.6013 10.624 68.3973 11.54 68.3973 12.772C68.3973 14.004 68.6013 14.924 69.0093 15.532C69.4173 16.132 70.0613 16.432 70.9413 16.432ZM90.4528 6.556L85.6288 19H82.2448L77.4207 6.556H80.5168C80.7808 6.556 81.0008 6.62 81.1768 6.748C81.3608 6.868 81.4848 7.02 81.5488 7.204L83.2768 12.784C83.4288 13.24 83.5608 13.684 83.6728 14.116C83.7928 14.548 83.8968 14.98 83.9848 15.412C84.1608 14.548 84.4048 13.672 84.7168 12.784L86.5168 7.204C86.5808 7.02 86.7008 6.868 86.8768 6.748C87.0528 6.62 87.2608 6.556 87.5008 6.556H90.4528ZM97.7581 13.936C97.0141 13.968 96.4021 14.032 95.9221 14.128C95.4421 14.224 95.0621 14.344 94.7821 14.488C94.5021 14.632 94.3061 14.796 94.1941 14.98C94.0901 15.164 94.0381 15.364 94.0381 15.58C94.0381 16.004 94.1541 16.304 94.3861 16.48C94.6181 16.648 94.9581 16.732 95.4061 16.732C95.8861 16.732 96.3061 16.648 96.6661 16.48C97.0261 16.312 97.3901 16.04 97.7581 15.664V13.936ZM91.0621 8.284C91.8141 7.62 92.6461 7.128 93.5581 6.808C94.4781 6.48 95.4621 6.316 96.5101 6.316C97.2621 6.316 97.9381 6.44 98.5381 6.688C99.1461 6.928 99.6581 7.268 100.074 7.708C100.498 8.14 100.822 8.656 101.046 9.256C101.27 9.856 101.382 10.512 101.382 11.224V19H99.6781C99.3261 19 99.0581 18.952 98.8741 18.856C98.6981 18.76 98.5501 18.56 98.4301 18.256L98.1661 17.572C97.8541 17.836 97.5541 18.068 97.2661 18.268C96.9781 18.468 96.6781 18.64 96.3661 18.784C96.0621 18.92 95.7341 19.02 95.3821 19.084C95.0381 19.156 94.6541 19.192 94.2301 19.192C93.6621 19.192 93.1461 19.12 92.6821 18.976C92.2181 18.824 91.8221 18.604 91.4941 18.316C91.1741 18.028 90.9261 17.672 90.7501 17.248C90.5741 16.816 90.4861 16.32 90.4861 15.76C90.4861 15.312 90.5981 14.86 90.8221 14.404C91.0461 13.94 91.4341 13.52 91.9861 13.144C92.5381 12.76 93.2821 12.44 94.2181 12.184C95.1541 11.928 96.3341 11.784 97.7581 11.752V11.224C97.7581 10.496 97.6061 9.972 97.3021 9.652C97.0061 9.324 96.5821 9.16 96.0301 9.16C95.5901 9.16 95.2301 9.208 94.9501 9.304C94.6701 9.4 94.4181 9.508 94.1941 9.628C93.9781 9.748 93.7661 9.856 93.5581 9.952C93.3501 10.048 93.1021 10.096 92.8141 10.096C92.5581 10.096 92.3421 10.032 92.1661 9.904C91.9901 9.776 91.8461 9.624 91.7341 9.448L91.0621 8.284Z" fill="#01996D"/>
    </symbol>

    <symbol width="72" height="73" viewBox="0 0 72 73" xmlns="http://www.w3.org/2000/svg" id="play-icon">
    <path d="M35.5913 0.40332C16.0068 0.40332 0.0756836 16.5573 0.0756836 36.4122C0.0756836 56.2672 16.0068 72.4212 35.5913 72.4212C55.1758 72.4212 71.107 56.2672 71.107 36.4122C71.107 16.5573 55.1758 0.40332 35.5913 0.40332ZM35.5913 69.4205C17.6398 69.4205 3.03527 54.6131 3.03527 36.4122C3.03527 18.2114 17.6398 3.40402 35.5913 3.40402C53.5428 3.40402 68.1474 18.2114 68.1474 36.4122C68.1474 54.6131 53.5428 69.4205 35.5913 69.4205Z" />
    <path d="M49.7107 35.1507L28.9933 21.6473C28.5395 21.347 27.9528 21.3308 27.4845 21.5916C27.0076 21.8554 26.7128 22.3595 26.7128 22.9089V49.9156C26.7128 50.465 27.0076 50.9691 27.4845 51.2329C27.7042 51.3545 27.9499 51.416 28.1926 51.416C28.4701 51.416 28.7505 51.3368 28.9933 51.1772L49.7107 37.6738C50.1327 37.3984 50.3899 36.9221 50.3899 36.4122C50.3899 35.9024 50.1327 35.4262 49.7107 35.1507ZM29.6724 47.1668V25.6577L46.173 36.4122L29.6724 47.1668Z" />
    </symbol>


    <symbol width="30" height="30" viewBox="0 0 100 100" fill="none" xmlns="http://www.w3.org/2000/svg" id="burder">
    <path d="M29.1667 24.9917C29.1667 19.4663 31.3617 14.1673 35.2687 10.2603C39.1757 6.35326 44.4747 4.15833 50.0001 4.15833C55.5254 4.15833 60.8245 6.35326 64.7315 10.2603C68.6385 14.1673 70.8334 19.4663 70.8334 24.9917H29.1667Z" fill="#245852"/>
    <path d="M26.725 33.3333L20.8333 27.4416V16.6666H12.5V30.8916L25 43.3916V50H12.5V58.3333H25V64.9416L12.5 77.4416V91.6666H20.8333V80.8916L26.5 75.225C29.5375 83.5583 36.875 89.8208 45.8333 91.3208V33.3333H26.725ZM54.1667 33.3333V91.3208C58.5227 90.5819 62.6057 88.7037 66.0012 85.8768C69.3967 83.0499 71.9838 79.3749 73.5 75.225L79.1667 80.8916V91.6666H87.5V77.4416L75 64.9416V58.3333H87.5V50H75V43.3916L87.5 30.8916V16.6666H79.1667V27.4416L73.275 33.3333H54.1667Z" fill="#245852"/>
    </symbol>

    <symbol width="30" height="30" viewBox="0 0 88 88" fill="none" xmlns="http://www.w3.org/2000/svg" id="cross">
    <path d="M85.6666 44V2.33337H69.4624L63.3874 10.1875M2.33325 44V2.33337H16.2208L24.3249 10.1875M85.6666 46.45C85.6666 68.1084 67.0124 85.6667 43.9999 85.6667C20.9874 85.6667 2.33325 68.1084 2.33325 46.45C2.33325 24.7917 20.9874 7.23337 43.9999 7.23337C67.0124 7.23337 85.6666 24.7917 85.6666 46.45Z" stroke="#01996D" stroke-width="4" stroke-linecap="square"/>
    <path d="M27.3333 35.6667V39.8334M60.6666 35.6667V39.8334M57.8083 55.2667C53.4041 58.2667 47.3541 56.9542 44.0041 50.2501C40.6541 56.9542 34.6041 58.2667 30.1999 55.2667M51.9833 57.7501C50.3999 62.0251 47.0833 69.0001 44.0041 69.0001C40.9249 69.0001 37.6041 62.0251 36.0208 57.7501" stroke="#01996D" stroke-width="4" stroke-linecap="square"/>
    </symbol>
</svg>
